{
	"asset":{
		"generator":"Khronos glTF Blender I/O v4.2.57",
		"version":"2.0"
	},
	"scene":0,
	"scenes":[
		{
			"name":"Scene",
			"nodes":[
				0,
				1,
				2,
				3,
				4,
				5,
				6,
				7,
				8,
				9,
				10,
				11,
				12,
				13,
				14
			]
		}
	],
	"nodes":[
		{
			"mesh":0,
			"name":"Floor1AndBasement",
			"translation":[
				-8.52401065826416,
				-3.4146616458892822,
				-15.525083541870117
			]
		},
		{
			"mesh":1,
			"name":"Upstairs",
			"translation":[
				15.995548248291016,
				7.750000476837158,
				-15.750000953674316
			]
		},
		{
			"mesh":2,
			"name":"Downstairs",
			"translation":[
				-36.333465576171875,
				-7.815606594085693,
				-25.87109375
			]
		},
		{
			"mesh":3,
			"name":"Bit2",
			"translation":[
				15.995509147644043,
				11.490050315856934,
				-15.829588890075684
			]
		},
		{
			"mesh":4,
			"name":"Bar.001",
			"translation":[
				0.7030074596405029,
				3.2768940925598145,
				-20.443357467651367
			]
		},
		{
			"mesh":5,
			"name":"Bit4",
			"scale":[
				1.041308879852295,
				1,
				1
			],
			"translation":[
				14.24345588684082,
				23.427106857299805,
				-16.327346801757812
			]
		},
		{
			"mesh":6,
			"name":"Floor2Walls",
			"translation":[
				-0.63124018907547,
				23.274097442626953,
				-26.327341079711914
			]
		},
		{
			"mesh":7,
			"name":"Roof",
			"translation":[
				-1.799859642982483,
				21.555580139160156,
				-9.545166015625
			]
		},
		{
			"mesh":8,
			"name":"Downstairs2",
			"translation":[
				-36.333465576171875,
				-23.21919059753418,
				-86.09408569335938
			]
		},
		{
			"mesh":9,
			"name":"Floor1OuterWall",
			"translation":[
				-8.52401065826416,
				-3.4146616458892822,
				-15.525083541870117
			]
		},
		{
			"mesh":10,
			"name":"Bit1",
			"translation":[
				-8.52401065826416,
				-3.438622236251831,
				-15.525083541870117
			]
		},
		{
			"mesh":11,
			"name":"Floor2Floor",
			"translation":[
				-1.799859642982483,
				21.963787078857422,
				-9.545166015625
			]
		},
		{
			"mesh":12,
			"name":"Bit3",
			"translation":[
				-1.799859642982483,
				21.884017944335938,
				-9.545166015625
			]
		},
		{
			"mesh":13,
			"name":"Floor2OuterWall",
			"translation":[
				1.6397773027420044,
				23.581321716308594,
				-11.68893051147461
			]
		},
		{
			"mesh":14,
			"name":"Bit5",
			"translation":[
				1.6397773027420044,
				23.581321716308594,
				-11.68893051147461
			]
		}
	],
	"meshes":[
		{
			"name":"Plane.001",
			"primitives":[
				{
					"attributes":{
						"POSITION":0,
						"NORMAL":1,
						"TEXCOORD_0":2
					},
					"indices":3
				}
			]
		},
		{
			"name":"Plane.002",
			"primitives":[
				{
					"attributes":{
						"POSITION":4,
						"NORMAL":5,
						"TEXCOORD_0":6
					},
					"indices":7
				}
			]
		},
		{
			"name":"Plane.003",
			"primitives":[
				{
					"attributes":{
						"POSITION":8,
						"NORMAL":9,
						"TEXCOORD_0":10
					},
					"indices":7
				}
			]
		},
		{
			"name":"Plane.004",
			"primitives":[
				{
					"attributes":{
						"POSITION":11,
						"NORMAL":12,
						"TEXCOORD_0":13
					},
					"indices":14
				}
			]
		},
		{
			"name":"Plane.005",
			"primitives":[
				{
					"attributes":{
						"POSITION":15,
						"NORMAL":16,
						"TEXCOORD_0":17
					},
					"indices":18
				}
			]
		},
		{
			"name":"Plane.007",
			"primitives":[
				{
					"attributes":{
						"POSITION":19,
						"NORMAL":20,
						"TEXCOORD_0":21
					},
					"indices":22
				}
			]
		},
		{
			"name":"Plane.008",
			"primitives":[
				{
					"attributes":{
						"POSITION":23,
						"NORMAL":24,
						"TEXCOORD_0":25
					},
					"indices":26
				}
			]
		},
		{
			"name":"Plane.011",
			"primitives":[
				{
					"attributes":{
						"POSITION":27,
						"NORMAL":28
					},
					"indices":29
				}
			]
		},
		{
			"name":"Plane.014",
			"primitives":[
				{
					"attributes":{
						"POSITION":30,
						"NORMAL":31,
						"TEXCOORD_0":32
					},
					"indices":7
				}
			]
		},
		{
			"name":"Plane.015",
			"primitives":[
				{
					"attributes":{
						"POSITION":33,
						"NORMAL":34,
						"TEXCOORD_0":35
					},
					"indices":36
				}
			]
		},
		{
			"name":"Plane.016",
			"primitives":[
				{
					"attributes":{
						"POSITION":37,
						"NORMAL":38,
						"TEXCOORD_0":39
					},
					"indices":40
				}
			]
		},
		{
			"name":"Plane.017",
			"primitives":[
				{
					"attributes":{
						"POSITION":41,
						"NORMAL":42,
						"TEXCOORD_0":43
					},
					"indices":44
				}
			]
		},
		{
			"name":"Plane.018",
			"primitives":[
				{
					"attributes":{
						"POSITION":45,
						"NORMAL":46,
						"TEXCOORD_0":47
					},
					"indices":48
				}
			]
		},
		{
			"name":"Plane.019",
			"primitives":[
				{
					"attributes":{
						"POSITION":49,
						"NORMAL":50
					},
					"indices":51
				}
			]
		},
		{
			"name":"Plane.021",
			"primitives":[
				{
					"attributes":{
						"POSITION":52,
						"NORMAL":53
					},
					"indices":54
				}
			]
		}
	],
	"accessors":[
		{
			"bufferView":0,
			"componentType":5126,
			"count":366,
			"max":[
				29.851356506347656,
				3.4146616458892822,
				38.85243225097656
			],
			"min":[
				-42.80333709716797,
				-12.1566743850708,
				-55.138587951660156
			],
			"type":"VEC3"
		},
		{
			"bufferView":1,
			"componentType":5126,
			"count":366,
			"type":"VEC3"
		},
		{
			"bufferView":2,
			"componentType":5126,
			"count":366,
			"type":"VEC2"
		},
		{
			"bufferView":3,
			"componentType":5123,
			"count":972,
			"type":"SCALAR"
		},
		{
			"bufferView":4,
			"componentType":5126,
			"count":1012,
			"max":[
				2.6658782958984375,
				7.999999523162842,
				15.750000953674316
			],
			"min":[
				-2.665957450866699,
				-8,
				-15.749999046325684
			],
			"type":"VEC3"
		},
		{
			"bufferView":5,
			"componentType":5126,
			"count":1012,
			"type":"VEC3"
		},
		{
			"bufferView":6,
			"componentType":5126,
			"count":1012,
			"type":"VEC2"
		},
		{
			"bufferView":7,
			"componentType":5123,
			"count":1518,
			"type":"SCALAR"
		},
		{
			"bufferView":8,
			"componentType":5126,
			"count":1012,
			"max":[
				4.989265441894531,
				8.000082969665527,
				15.750012397766113
			],
			"min":[
				-4.989158630371094,
				-7.999917984008789,
				-15.749988555908203
			],
			"type":"VEC3"
		},
		{
			"bufferView":9,
			"componentType":5126,
			"count":1012,
			"type":"VEC3"
		},
		{
			"bufferView":10,
			"componentType":5126,
			"count":1012,
			"type":"VEC2"
		},
		{
			"bufferView":11,
			"componentType":5126,
			"count":152,
			"max":[
				2.8572511672973633,
				19.048080444335938,
				15.829588890075684
			],
			"min":[
				-2.857253074645996,
				-11.490050315856934,
				-15.497757911682129
			],
			"type":"VEC3"
		},
		{
			"bufferView":12,
			"componentType":5126,
			"count":152,
			"type":"VEC3"
		},
		{
			"bufferView":13,
			"componentType":5126,
			"count":152,
			"type":"VEC2"
		},
		{
			"bufferView":14,
			"componentType":5123,
			"count":360,
			"type":"SCALAR"
		},
		{
			"bufferView":15,
			"componentType":5126,
			"count":122,
			"max":[
				12.35018539428711,
				1.3311035633087158,
				3.3190555572509766
			],
			"min":[
				-12.35018539428711,
				-3.322303056716919,
				-3.319059371948242
			],
			"type":"VEC3"
		},
		{
			"bufferView":16,
			"componentType":5126,
			"count":122,
			"type":"VEC3"
		},
		{
			"bufferView":17,
			"componentType":5126,
			"count":122,
			"type":"VEC2"
		},
		{
			"bufferView":18,
			"componentType":5123,
			"count":264,
			"type":"SCALAR"
		},
		{
			"bufferView":19,
			"componentType":5126,
			"count":40,
			"max":[
				4.3799238204956055,
				7.927099227905273,
				15
			],
			"min":[
				-1.0137779712677002,
				-7.927106857299805,
				-15
			],
			"type":"VEC3"
		},
		{
			"bufferView":20,
			"componentType":5126,
			"count":40,
			"type":"VEC3"
		},
		{
			"bufferView":21,
			"componentType":5126,
			"count":40,
			"type":"VEC2"
		},
		{
			"bufferView":22,
			"componentType":5123,
			"count":84,
			"type":"SCALAR"
		},
		{
			"bufferView":23,
			"componentType":5126,
			"count":156,
			"max":[
				10,
				7.5,
				54.39594268798828
			],
			"min":[
				-10.098932266235352,
				-7.5,
				-5.000005722045898
			],
			"type":"VEC3"
		},
		{
			"bufferView":24,
			"componentType":5126,
			"count":156,
			"type":"VEC3"
		},
		{
			"bufferView":25,
			"componentType":5126,
			"count":156,
			"type":"VEC2"
		},
		{
			"bufferView":26,
			"componentType":5123,
			"count":348,
			"type":"SCALAR"
		},
		{
			"bufferView":27,
			"componentType":5126,
			"count":24,
			"max":[
				21.45261573791504,
				9.7591552734375,
				38.673500061035156
			],
			"min":[
				-19.843915939331055,
				8.316831588745117,
				-32.23786163330078
			],
			"type":"VEC3"
		},
		{
			"bufferView":28,
			"componentType":5126,
			"count":24,
			"type":"VEC3"
		},
		{
			"bufferView":29,
			"componentType":5123,
			"count":36,
			"type":"SCALAR"
		},
		{
			"bufferView":30,
			"componentType":5126,
			"count":1012,
			"max":[
				4.989265441894531,
				8.000082969665527,
				15.750012397766113
			],
			"min":[
				-4.989158630371094,
				-7.999917984008789,
				-15.749988555908203
			],
			"type":"VEC3"
		},
		{
			"bufferView":31,
			"componentType":5126,
			"count":1012,
			"type":"VEC3"
		},
		{
			"bufferView":32,
			"componentType":5126,
			"count":1012,
			"type":"VEC2"
		},
		{
			"bufferView":33,
			"componentType":5126,
			"count":298,
			"max":[
				29.851356506347656,
				19.007160186767578,
				36.85243225097656
			],
			"min":[
				-12.803336143493652,
				3.4146616458892822,
				-15.802263259887695
			],
			"type":"VEC3"
		},
		{
			"bufferView":34,
			"componentType":5126,
			"count":298,
			"type":"VEC3"
		},
		{
			"bufferView":35,
			"componentType":5126,
			"count":298,
			"type":"VEC2"
		},
		{
			"bufferView":36,
			"componentType":5123,
			"count":756,
			"type":"SCALAR"
		},
		{
			"bufferView":37,
			"componentType":5126,
			"count":64,
			"max":[
				29.955772399902344,
				19.491975784301758,
				36.92876434326172
			],
			"min":[
				27.080984115600586,
				19.007160186767578,
				-15.886632919311523
			],
			"type":"VEC3"
		},
		{
			"bufferView":38,
			"componentType":5126,
			"count":64,
			"type":"VEC3"
		},
		{
			"bufferView":39,
			"componentType":5126,
			"count":64,
			"type":"VEC2"
		},
		{
			"bufferView":40,
			"componentType":5123,
			"count":156,
			"type":"SCALAR"
		},
		{
			"bufferView":41,
			"componentType":5126,
			"count":118,
			"max":[
				21.136186599731445,
				-5.870648384094238,
				38.21781921386719
			],
			"min":[
				-19.52748680114746,
				-6.683168411254883,
				-31.782180786132812
			],
			"type":"VEC3"
		},
		{
			"bufferView":42,
			"componentType":5126,
			"count":118,
			"type":"VEC3"
		},
		{
			"bufferView":43,
			"componentType":5126,
			"count":118,
			"type":"VEC2"
		},
		{
			"bufferView":44,
			"componentType":5123,
			"count":360,
			"type":"SCALAR"
		},
		{
			"bufferView":45,
			"componentType":5126,
			"count":32,
			"max":[
				23.139890670776367,
				-5.870648384094238,
				-21.81283187866211
			],
			"min":[
				14.985584259033203,
				-6.683168411254883,
				-31.782180786132812
			],
			"type":"VEC3"
		},
		{
			"bufferView":46,
			"componentType":5126,
			"count":32,
			"type":"VEC3"
		},
		{
			"bufferView":47,
			"componentType":5126,
			"count":32,
			"type":"VEC2"
		},
		{
			"bufferView":48,
			"componentType":5123,
			"count":60,
			"type":"SCALAR"
		},
		{
			"bufferView":49,
			"componentType":5126,
			"count":306,
			"max":[
				19.700254440307617,
				7.511817455291748,
				40.3615837097168
			],
			"min":[
				-22.96712303161621,
				-7.567951679229736,
				-29.638416290283203
			],
			"type":"VEC3"
		},
		{
			"bufferView":50,
			"componentType":5126,
			"count":306,
			"type":"VEC3"
		},
		{
			"bufferView":51,
			"componentType":5123,
			"count":888,
			"type":"SCALAR"
		},
		{
			"bufferView":52,
			"componentType":5126,
			"count":64,
			"max":[
				19.700254440307617,
				7.511817455291748,
				-19.197263717651367
			],
			"min":[
				7.688570022583008,
				-7.567951679229736,
				-19.751047134399414
			],
			"type":"VEC3"
		},
		{
			"bufferView":53,
			"componentType":5126,
			"count":64,
			"type":"VEC3"
		},
		{
			"bufferView":54,
			"componentType":5123,
			"count":120,
			"type":"SCALAR"
		}
	],
	"bufferViews":[
		{
			"buffer":0,
			"byteLength":4392,
			"byteOffset":0,
			"target":34962
		},
		{
			"buffer":0,
			"byteLength":4392,
			"byteOffset":4392,
			"target":34962
		},
		{
			"buffer":0,
			"byteLength":2928,
			"byteOffset":8784,
			"target":34962
		},
		{
			"buffer":0,
			"byteLength":1944,
			"byteOffset":11712,
			"target":34963
		},
		{
			"buffer":0,
			"byteLength":12144,
			"byteOffset":13656,
			"target":34962
		},
		{
			"buffer":0,
			"byteLength":12144,
			"byteOffset":25800,
			"target":34962
		},
		{
			"buffer":0,
			"byteLength":8096,
			"byteOffset":37944,
			"target":34962
		},
		{
			"buffer":0,
			"byteLength":3036,
			"byteOffset":46040,
			"target":34963
		},
		{
			"buffer":0,
			"byteLength":12144,
			"byteOffset":49076,
			"target":34962
		},
		{
			"buffer":0,
			"byteLength":12144,
			"byteOffset":61220,
			"target":34962
		},
		{
			"buffer":0,
			"byteLength":8096,
			"byteOffset":73364,
			"target":34962
		},
		{
			"buffer":0,
			"byteLength":1824,
			"byteOffset":81460,
			"target":34962
		},
		{
			"buffer":0,
			"byteLength":1824,
			"byteOffset":83284,
			"target":34962
		},
		{
			"buffer":0,
			"byteLength":1216,
			"byteOffset":85108,
			"target":34962
		},
		{
			"buffer":0,
			"byteLength":720,
			"byteOffset":86324,
			"target":34963
		},
		{
			"buffer":0,
			"byteLength":1464,
			"byteOffset":87044,
			"target":34962
		},
		{
			"buffer":0,
			"byteLength":1464,
			"byteOffset":88508,
			"target":34962
		},
		{
			"buffer":0,
			"byteLength":976,
			"byteOffset":89972,
			"target":34962
		},
		{
			"buffer":0,
			"byteLength":528,
			"byteOffset":90948,
			"target":34963
		},
		{
			"buffer":0,
			"byteLength":480,
			"byteOffset":91476,
			"target":34962
		},
		{
			"buffer":0,
			"byteLength":480,
			"byteOffset":91956,
			"target":34962
		},
		{
			"buffer":0,
			"byteLength":320,
			"byteOffset":92436,
			"target":34962
		},
		{
			"buffer":0,
			"byteLength":168,
			"byteOffset":92756,
			"target":34963
		},
		{
			"buffer":0,
			"byteLength":1872,
			"byteOffset":92924,
			"target":34962
		},
		{
			"buffer":0,
			"byteLength":1872,
			"byteOffset":94796,
			"target":34962
		},
		{
			"buffer":0,
			"byteLength":1248,
			"byteOffset":96668,
			"target":34962
		},
		{
			"buffer":0,
			"byteLength":696,
			"byteOffset":97916,
			"target":34963
		},
		{
			"buffer":0,
			"byteLength":288,
			"byteOffset":98612,
			"target":34962
		},
		{
			"buffer":0,
			"byteLength":288,
			"byteOffset":98900,
			"target":34962
		},
		{
			"buffer":0,
			"byteLength":72,
			"byteOffset":99188,
			"target":34963
		},
		{
			"buffer":0,
			"byteLength":12144,
			"byteOffset":99260,
			"target":34962
		},
		{
			"buffer":0,
			"byteLength":12144,
			"byteOffset":111404,
			"target":34962
		},
		{
			"buffer":0,
			"byteLength":8096,
			"byteOffset":123548,
			"target":34962
		},
		{
			"buffer":0,
			"byteLength":3576,
			"byteOffset":131644,
			"target":34962
		},
		{
			"buffer":0,
			"byteLength":3576,
			"byteOffset":135220,
			"target":34962
		},
		{
			"buffer":0,
			"byteLength":2384,
			"byteOffset":138796,
			"target":34962
		},
		{
			"buffer":0,
			"byteLength":1512,
			"byteOffset":141180,
			"target":34963
		},
		{
			"buffer":0,
			"byteLength":768,
			"byteOffset":142692,
			"target":34962
		},
		{
			"buffer":0,
			"byteLength":768,
			"byteOffset":143460,
			"target":34962
		},
		{
			"buffer":0,
			"byteLength":512,
			"byteOffset":144228,
			"target":34962
		},
		{
			"buffer":0,
			"byteLength":312,
			"byteOffset":144740,
			"target":34963
		},
		{
			"buffer":0,
			"byteLength":1416,
			"byteOffset":145052,
			"target":34962
		},
		{
			"buffer":0,
			"byteLength":1416,
			"byteOffset":146468,
			"target":34962
		},
		{
			"buffer":0,
			"byteLength":944,
			"byteOffset":147884,
			"target":34962
		},
		{
			"buffer":0,
			"byteLength":720,
			"byteOffset":148828,
			"target":34963
		},
		{
			"buffer":0,
			"byteLength":384,
			"byteOffset":149548,
			"target":34962
		},
		{
			"buffer":0,
			"byteLength":384,
			"byteOffset":149932,
			"target":34962
		},
		{
			"buffer":0,
			"byteLength":256,
			"byteOffset":150316,
			"target":34962
		},
		{
			"buffer":0,
			"byteLength":120,
			"byteOffset":150572,
			"target":34963
		},
		{
			"buffer":0,
			"byteLength":3672,
			"byteOffset":150692,
			"target":34962
		},
		{
			"buffer":0,
			"byteLength":3672,
			"byteOffset":154364,
			"target":34962
		},
		{
			"buffer":0,
			"byteLength":1776,
			"byteOffset":158036,
			"target":34963
		},
		{
			"buffer":0,
			"byteLength":768,
			"byteOffset":159812,
			"target":34962
		},
		{
			"buffer":0,
			"byteLength":768,
			"byteOffset":160580,
			"target":34962
		},
		{
			"buffer":0,
			"byteLength":240,
			"byteOffset":161348,
			"target":34963
		}
	],
	"buffers":[
		{
			"byteLength":161588,
			"uri":"LevelProject.bin"
		}
	]
}
