{
	"asset":{
		"generator":"Khronos glTF Blender I/O v4.2.57",
		"version":"2.0"
	},
	"extensionsUsed":[
		"KHR_materials_specular"
	],
	"scene":0,
	"scenes":[
		{
			"name":"Scene",
			"nodes":[
				0,
				1
			]
		}
	],
	"nodes":[
		{
			"mesh":0,
			"name":"Character",
			"rotation":[
				0,
				0,
				-0.7071066498756409,
				0.70710688829422
			],
			"scale":[
				1.9839446544647217,
				1.063400387763977,
				1.130647897720337
			],
			"translation":[
				0,
				0.512328028678894,
				0.004542932379990816
			]
		},
		{
			"mesh":1,
			"name":"Rolls",
			"rotation":[
				0.10889629274606705,
				0.10889629274606705,
				-0.6986713409423828,
				0.698671281337738
			],
			"translation":[
				0,
				0.49295780062675476,
				-0.10891127586364746
			]
		}
	],
	"materials":[
		{
			"doubleSided":true,
			"extensions":{
				"KHR_materials_specular":{
					"specularFactor":0
				}
			},
			"name":"OwlMask",
			"pbrMetallicRoughness":{
				"baseColorTexture":{
					"index":0
				},
				"metallicFactor":0
			}
		}
	],
	"meshes":[
		{
			"name":"Roundcube.007",
			"primitives":[
				{
					"attributes":{
						"POSITION":0,
						"NORMAL":1,
						"TEXCOORD_0":2
					},
					"indices":3,
					"material":0
				}
			]
		},
		{
			"name":"Cylinder",
			"primitives":[
				{
					"attributes":{
						"POSITION":4,
						"NORMAL":5,
						"TEXCOORD_0":6
					},
					"indices":7,
					"material":0
				}
			]
		}
	],
	"textures":[
		{
			"sampler":0,
			"source":0
		}
	],
	"images":[
		{
			"mimeType":"image/png",
			"name":"OwlMask",
			"uri":"OwlMask.png"
		}
	],
	"accessors":[
		{
			"bufferView":0,
			"componentType":5126,
			"count":1692,
			"max":[
				0.8698946833610535,
				0.7557682991027832,
				0.13505826890468597
			],
			"min":[
				-0.4232053756713867,
				-0.7557682991027832,
				-0.30428847670555115
			],
			"type":"VEC3"
		},
		{
			"bufferView":1,
			"componentType":5126,
			"count":1692,
			"type":"VEC3"
		},
		{
			"bufferView":2,
			"componentType":5126,
			"count":1692,
			"type":"VEC2"
		},
		{
			"bufferView":3,
			"componentType":5123,
			"count":6948,
			"type":"SCALAR"
		},
		{
			"bufferView":4,
			"componentType":5126,
			"count":276,
			"max":[
				-0.22788983583450317,
				0.3432072699069977,
				-0.09254022687673569
			],
			"min":[
				-0.5035611987113953,
				-0.3438258469104767,
				-0.2540993094444275
			],
			"type":"VEC3"
		},
		{
			"bufferView":5,
			"componentType":5126,
			"count":276,
			"type":"VEC3"
		},
		{
			"bufferView":6,
			"componentType":5126,
			"count":276,
			"type":"VEC2"
		},
		{
			"bufferView":7,
			"componentType":5123,
			"count":1344,
			"type":"SCALAR"
		}
	],
	"bufferViews":[
		{
			"buffer":0,
			"byteLength":20304,
			"byteOffset":0,
			"target":34962
		},
		{
			"buffer":0,
			"byteLength":20304,
			"byteOffset":20304,
			"target":34962
		},
		{
			"buffer":0,
			"byteLength":13536,
			"byteOffset":40608,
			"target":34962
		},
		{
			"buffer":0,
			"byteLength":13896,
			"byteOffset":54144,
			"target":34963
		},
		{
			"buffer":0,
			"byteLength":3312,
			"byteOffset":68040,
			"target":34962
		},
		{
			"buffer":0,
			"byteLength":3312,
			"byteOffset":71352,
			"target":34962
		},
		{
			"buffer":0,
			"byteLength":2208,
			"byteOffset":74664,
			"target":34962
		},
		{
			"buffer":0,
			"byteLength":2688,
			"byteOffset":76872,
			"target":34963
		}
	],
	"samplers":[
		{
			"magFilter":9729,
			"minFilter":9987
		}
	],
	"buffers":[
		{
			"byteLength":79560,
			"uri":"Owl_Mask.bin"
		}
	]
}
