{
	"asset":{
		"generator":"Khronos glTF Blender I/O v4.2.57",
		"version":"2.0"
	},
	"extensionsUsed":[
		"KHR_materials_specular"
	],
	"scene":0,
	"scenes":[
		{
			"name":"Scene",
			"nodes":[
				0,
				1
			]
		}
	],
	"nodes":[
		{
			"mesh":0,
			"name":"Body",
			"scale":[
				0.10333935916423798,
				0.10333935916423798,
				0.10333935916423798
			],
			"translation":[
				0,
				0.6072870492935181,
				0.009931134060025215
			]
		},
		{
			"mesh":1,
			"name":"Cloak",
			"scale":[
				0.2023518681526184,
				0.2023518681526184,
				0.2023518681526184
			],
			"translation":[
				-0.023677527904510498,
				1.0287861824035645,
				-0.08059202134609222
			]
		}
	],
	"materials":[
		{
			"doubleSided":true,
			"extensions":{
				"KHR_materials_specular":{
					"specularFactor":0
				}
			},
			"name":"Material",
			"pbrMetallicRoughness":{
				"baseColorTexture":{
					"index":0
				},
				"metallicFactor":0
			}
		}
	],
	"meshes":[
		{
			"name":"Roundcube",
			"primitives":[
				{
					"attributes":{
						"POSITION":0,
						"NORMAL":1,
						"TEXCOORD_0":2
					},
					"indices":3,
					"material":0
				}
			]
		},
		{
			"name":"Cube",
			"primitives":[
				{
					"attributes":{
						"POSITION":4,
						"NORMAL":5,
						"TEXCOORD_0":6
					},
					"indices":7,
					"material":0
				}
			]
		}
	],
	"textures":[
		{
			"sampler":0,
			"source":0
		}
	],
	"images":[
		{
			"mimeType":"image/png",
			"name":"Rabbit",
			"uri":"Rabbit.png"
		}
	],
	"accessors":[
		{
			"bufferView":0,
			"componentType":5126,
			"count":1541,
			"max":[
				5.706904411315918,
				3.767850875854492,
				1.6369370222091675
			],
			"min":[
				-5.706904411315918,
				-16.830810546875,
				-1.473733901977539
			],
			"type":"VEC3"
		},
		{
			"bufferView":1,
			"componentType":5126,
			"count":1541,
			"type":"VEC3"
		},
		{
			"bufferView":2,
			"componentType":5126,
			"count":1541,
			"type":"VEC2"
		},
		{
			"bufferView":3,
			"componentType":5123,
			"count":6954,
			"type":"SCALAR"
		},
		{
			"bufferView":4,
			"componentType":5126,
			"count":702,
			"max":[
				1.7158163785934448,
				-1.0067722797393799,
				0.7425171732902527
			],
			"min":[
				-1.5435277223587036,
				-7.712972164154053,
				-0.5218716859817505
			],
			"type":"VEC3"
		},
		{
			"bufferView":5,
			"componentType":5126,
			"count":702,
			"type":"VEC3"
		},
		{
			"bufferView":6,
			"componentType":5126,
			"count":702,
			"type":"VEC2"
		},
		{
			"bufferView":7,
			"componentType":5123,
			"count":3792,
			"type":"SCALAR"
		}
	],
	"bufferViews":[
		{
			"buffer":0,
			"byteLength":18492,
			"byteOffset":0,
			"target":34962
		},
		{
			"buffer":0,
			"byteLength":18492,
			"byteOffset":18492,
			"target":34962
		},
		{
			"buffer":0,
			"byteLength":12328,
			"byteOffset":36984,
			"target":34962
		},
		{
			"buffer":0,
			"byteLength":13908,
			"byteOffset":49312,
			"target":34963
		},
		{
			"buffer":0,
			"byteLength":8424,
			"byteOffset":63220,
			"target":34962
		},
		{
			"buffer":0,
			"byteLength":8424,
			"byteOffset":71644,
			"target":34962
		},
		{
			"buffer":0,
			"byteLength":5616,
			"byteOffset":80068,
			"target":34962
		},
		{
			"buffer":0,
			"byteLength":7584,
			"byteOffset":85684,
			"target":34963
		}
	],
	"samplers":[
		{
			"magFilter":9729,
			"minFilter":9987
		}
	],
	"buffers":[
		{
			"byteLength":93268,
			"uri":"Rabbit_Mask1.bin"
		}
	]
}
