{"accessors":[{"bufferView":0,"byteOffset":0,"componentType":5126,"count":438,"max":[0.499999970197678,0.296822667121887,0.5],"min":[-0.49999997019768,-0.36360108852386,-0.5],"normalized":false,"type":"VEC3"},{"bufferView":1,"byteOffset":0,"componentType":5126,"count":438,"max":[1,0.0212767422199249,1,1],"min":[-1,-0.00976152997464,-1,-1],"normalized":false,"type":"VEC4"},{"bufferView":2,"byteOffset":0,"componentType":5126,"count":438,"max":[1,1,1],"min":[-1,-1,-0.99060428142548],"normalized":false,"type":"VEC3"},{"bufferView":3,"byteOffset":0,"componentType":5126,"count":438,"max":[1,1],"min":[0,0],"normalized":false,"type":"VEC2"},{"bufferView":4,"byteOffset":0,"componentType":5123,"count":438,"max":[437],"min":[0],"normalized":false,"type":"SCALAR"}],"asset":{"generator":"Godot Engine v4.3.stable.official@77dcf97d82cbfe4e4615475fa52ca03da645dbd8","version":"2.0"},"bufferViews":[{"buffer":0,"byteLength":5256,"byteOffset":0,"byteStride":12,"target":34962},{"buffer":0,"byteLength":7008,"byteOffset":5256,"byteStride":16,"target":34962},{"buffer":0,"byteLength":5256,"byteOffset":12264,"byteStride":12,"target":34962},{"buffer":0,"byteLength":3504,"byteOffset":17520,"byteStride":8,"target":34962},{"buffer":0,"byteLength":876,"byteOffset":21024,"target":34963}],"buffers":[{"byteLength":21900,"uri":"wedge0.bin"}],"extensionsUsed":["GODOT_single_root"],"materials":[{"extensions":{},"pbrMetallicRoughness":{"baseColorFactor":[0.99999988079071,0.99999988079071,0.99999988079071,1],"metallicFactor":0,"roughnessFactor":1}}],"meshes":[{"extras":{"targetNames":[]},"primitives":[{"attributes":{"NORMAL":2,"POSITION":0,"TANGENT":1,"TEXCOORD_0":3},"indices":4,"material":0,"mode":4}]}],"nodes":[{"children":[1],"name":"Node3D"},{"children":[2],"mesh":0,"name":"CSGCombiner3D2"},{"children":[3,4],"name":"CSGCylinder3D"},{"name":"CSGCylinder3D2","translation":[0,-0.30317735671997,0]},{"name":"CSGMesh3D","translation":[0,0.13639897108078,0]}],"scene":0,"scenes":[{"nodes":[0]}]}